<?xml version="1.0" encoding="utf-8"?>
<!-- Generator: Adobe Illustrator 18.1.1, SVG Export Plug-In . SVG Version: 6.00 Build 0)  -->
<svg version="1.1" id="Layer_1" xmlns="http://www.w3.org/2000/svg" xmlns:xlink="http://www.w3.org/1999/xlink" x="0px" y="0px"
	 viewBox="0 0 1024 768" style="enable-background:new 0 0 1024 768;" xml:space="preserve">
<style type="text/css">
	.st0{fill:#68CADE;}
	.st1{fill:#F4823D;}
	.st2{fill:#F16525;}
	.st3{fill:#00BBD4;}
	.st4{fill:#E76820;}
	.st5{fill:#DF5D22;}
</style>
<g>
	<g>
		<polygon class="st0" points="930.5,587.7 650.9,122.9 397.4,544.2 461.8,544.2 653.7,231 895,645.1 		"/>
		<polygon class="st1" points="895,645.1 839.9,645.1 622.3,280.9 653.7,231 		"/>
		<polygon class="st0" points="314.4,591.5 582.8,591.5 508.5,468 542.2,412.9 681.9,645.1 346.6,645.1 		"/>
		<polygon class="st1" points="681.9,645.1 709.8,589.9 573.1,362.6 542.2,412.9 		"/>
		<polygon class="st2" points="554.4,544.2 582.9,591.5 314.4,591.5 596.3,122.9 650.9,122.9 397.4,544.2 		"/>
		<polygon class="st0" points="484.7,308.4 451.5,363.5 401.3,281.6 370.3,231 129,645.1 93.5,587.7 373.1,123 373.2,122.9 		"/>
		<polygon class="st2" points="129,645.1 184.1,645.1 401.7,280.9 370.3,231 		"/>
		<polygon class="st1" points="484.7,308.4 373.1,123 373.1,122.9 427.7,122.9 512,263 		"/>
		<polygon class="st3" points="542.2,412.9 508.5,468 515,478.7 549.5,425 		"/>
		<polygon class="st4" points="573.1,362.6 542.2,412.9 549.5,425 580.3,374.6 		"/>
	</g>
	<polygon class="st5" points="554.4,544.2 529.6,544.2 572.4,591.5 582.8,591.5 	"/>
</g>
<g>
</g>
<g>
</g>
<g>
</g>
<g>
</g>
<g>
</g>
<g>
</g>
<g>
</g>
<g>
</g>
<g>
</g>
<g>
</g>
<g>
</g>
<g>
</g>
<g>
</g>
<g>
</g>
<g>
</g>
</svg>
